# xmcd
#
# Track frame offsets:
# 182
# 11597
# 25062
# 35157
# 48345
# 65592
# 76532
# 89222
# 104445
# 112917
# 126017
# 136810
# 150565
# 160902
# 173972
# 183682
# 195515
# 206405
# 212102
# 223377
# 233170
# 243045
# 254702
# 265532
# 273477
#
# Disc length: 3869 seconds
#
#
# Revision: 0
# Processed by: cddbd v1.5.2PL0 Copyright (c) Steve Scherf et al.
# Submitted via: Nero 7, 2, 0, 3 
#
DISCID=640f1b19
DTITLE=Various Artist - Blue Eyes Crying In The Rain
DYEAR=2004
DGENRE=Country
TTITLE0=Blue Eyes Crying In The Rain
TTITLE1=Blue Eyes Crying In The Rain
TTITLE2=Blue Eyes Crying In The Rain
TTITLE3=Blue Eyes Crying In The Rain
TTITLE4=Blue Eyes Crying In The Rain
TTITLE5=Blue Eyes Crying In The Rain
TTITLE6=Blue Eyes Crying In The Rain
TTITLE7=Blue Eyes Crying In The Rain
TTITLE8=Blue Eyes Crying In The Rain
TTITLE9=Blue Eyes Crying In The Rain
TTITLE10=Blue Eyes Crying In The Rain
TTITLE11=Blue Eyes Crying In The Rain
TTITLE12=Blue Eyes Crying In The Rain
TTITLE13=Blue Eyes Crying In The Rain
TTITLE14=Blue Eyes Crying In The Rain
TTITLE15=Blue Eyes Crying In The Rain
TTITLE16=Blue Eyes Crying In The Rain
TTITLE17=Blue Eyes Crying In The Rain
TTITLE18=Blue Eyes Crying In The Rain
TTITLE19=Blue Eyes Crying In The Rain
TTITLE20=Blue Eyes Crying In The Rain
TTITLE21=Blue Eyes Crying In The Rain
TTITLE22=Blue Eyes Crying In The Rain
TTITLE23=Blue Eyes Crying In The Rain
TTITLE24=Blue Eyes Crying In The Rain
EXTD=
EXTT0=
EXTT1=
EXTT2=
EXTT3=
EXTT4=
EXTT5=
EXTT6=
EXTT7=
EXTT8=
EXTT9=
EXTT10=
EXTT11=
EXTT12=
EXTT13=
EXTT14=
EXTT15=
EXTT16=
EXTT17=
EXTT18=
EXTT19=
EXTT20=
EXTT21=
EXTT22=
EXTT23=
EXTT24=
PLAYORDER=
